<?xml version="1.0" encoding="UTF-8" standalone="no"?>
<!DOCTYPE svg PUBLIC "-//W3C//DTD SVG 1.1//EN"
 "http://www.w3.org/Graphics/SVG/1.1/DTD/svg11.dtd">
<!-- Generated by graphviz version 2.47.0 (20210316.0004)
 -->
<!-- Title: dbml Pages: 1 -->
<svg width="2077pt" height="4615pt"
 viewBox="0.00 0.00 2076.87 4614.92" xmlns="http://www.w3.org/2000/svg" xmlns:xlink="http://www.w3.org/1999/xlink">
<g id="graph0" class="graph" transform="scale(1 1) rotate(0) translate(4 4610.92)">
<title>dbml</title>
<!-- Car -->
<g id="Car" class="node">
<title>Car</title>
<ellipse fill="none" stroke="black" stroke-width="0" cx="1057.06" cy="-1740.96" rx="263.09" ry="299.63"/>
<polygon fill="#1d71b8" stroke="transparent" points="873.06,-1890.96 873.06,-1950.96 1241.06,-1950.96 1241.06,-1890.96 873.06,-1890.96"/>
<polygon fill="none" stroke="#29235c" points="873.06,-1890.96 873.06,-1950.96 1241.06,-1950.96 1241.06,-1890.96 873.06,-1890.96"/>
<text text-anchor="start" x="969.04" y="-1912.16" font-family="Helvetica,sans-Serif" font-weight="bold" font-size="32.00" fill="#ffffff"> &#160;&#160;&#160;&#160;&#160;&#160;Car &#160;&#160;&#160;&#160;&#160;&#160;</text>
<polygon fill="#e7e2dd" stroke="transparent" points="873.06,-1830.96 873.06,-1890.96 1241.06,-1890.96 1241.06,-1830.96 873.06,-1830.96"/>
<polygon fill="none" stroke="#29235c" points="873.06,-1830.96 873.06,-1890.96 1241.06,-1890.96 1241.06,-1830.96 873.06,-1830.96"/>
<text text-anchor="start" x="884.06" y="-1852.16" font-family="Helvetica,sans-Serif" font-weight="bold" font-size="32.00" fill="#29235c">id</text>
<text text-anchor="start" x="908.95" y="-1852.16" font-family="Helvetica,sans-Serif" font-size="32.00" fill="#29235c"> &#160;&#160;&#160;</text>
<text text-anchor="start" x="1087.84" y="-1852.16" font-family="Helvetica,sans-Serif" font-style="italic" font-size="32.00" fill="#29235c">INTEGER</text>
<polygon fill="#e7e2dd" stroke="transparent" points="873.06,-1770.96 873.06,-1830.96 1241.06,-1830.96 1241.06,-1770.96 873.06,-1770.96"/>
<polygon fill="none" stroke="#29235c" points="873.06,-1770.96 873.06,-1830.96 1241.06,-1830.96 1241.06,-1770.96 873.06,-1770.96"/>
<text text-anchor="start" x="884.06" y="-1791.16" font-family="Helvetica,sans-Serif" font-size="32.00" fill="#29235c">make &#160;&#160;&#160;</text>
<text text-anchor="start" x="1073.64" y="-1792.16" font-family="Helvetica,sans-Serif" font-style="italic" font-size="32.00" fill="#29235c">VARCHAR</text>
<polygon fill="#e7e2dd" stroke="transparent" points="873.06,-1710.96 873.06,-1770.96 1241.06,-1770.96 1241.06,-1710.96 873.06,-1710.96"/>
<polygon fill="none" stroke="#29235c" points="873.06,-1710.96 873.06,-1770.96 1241.06,-1770.96 1241.06,-1710.96 873.06,-1710.96"/>
<text text-anchor="start" x="884.06" y="-1731.16" font-family="Helvetica,sans-Serif" font-size="32.00" fill="#29235c">model &#160;&#160;&#160;</text>
<text text-anchor="start" x="1073.64" y="-1732.16" font-family="Helvetica,sans-Serif" font-style="italic" font-size="32.00" fill="#29235c">VARCHAR</text>
<polygon fill="#e7e2dd" stroke="transparent" points="873.06,-1650.96 873.06,-1710.96 1241.06,-1710.96 1241.06,-1650.96 873.06,-1650.96"/>
<polygon fill="none" stroke="#29235c" points="873.06,-1650.96 873.06,-1710.96 1241.06,-1710.96 1241.06,-1650.96 873.06,-1650.96"/>
<text text-anchor="start" x="884.06" y="-1671.16" font-family="Helvetica,sans-Serif" font-size="32.00" fill="#29235c">year &#160;&#160;&#160;</text>
<text text-anchor="start" x="1087.84" y="-1672.16" font-family="Helvetica,sans-Serif" font-style="italic" font-size="32.00" fill="#29235c">INTEGER</text>
<polygon fill="#e7e2dd" stroke="transparent" points="873.06,-1590.96 873.06,-1650.96 1241.06,-1650.96 1241.06,-1590.96 873.06,-1590.96"/>
<polygon fill="none" stroke="#29235c" points="873.06,-1590.96 873.06,-1650.96 1241.06,-1650.96 1241.06,-1590.96 873.06,-1590.96"/>
<text text-anchor="start" x="883.93" y="-1611.16" font-family="Helvetica,sans-Serif" font-size="32.00" fill="#29235c">description &#160;&#160;&#160;</text>
<text text-anchor="start" x="1073.85" y="-1612.16" font-family="Helvetica,sans-Serif" font-style="italic" font-size="32.00" fill="#29235c">VARCHAR</text>
<polygon fill="#e7e2dd" stroke="transparent" points="873.06,-1530.96 873.06,-1590.96 1241.06,-1590.96 1241.06,-1530.96 873.06,-1530.96"/>
<polygon fill="none" stroke="#29235c" points="873.06,-1530.96 873.06,-1590.96 1241.06,-1590.96 1241.06,-1530.96 873.06,-1530.96"/>
<text text-anchor="start" x="884.06" y="-1551.16" font-family="Helvetica,sans-Serif" font-size="32.00" fill="#29235c">dealer_id &#160;&#160;&#160;</text>
<text text-anchor="start" x="1087.84" y="-1552.16" font-family="Helvetica,sans-Serif" font-style="italic" font-size="32.00" fill="#29235c">INTEGER</text>
<polygon fill="none" stroke="#29235c" stroke-width="2" points="872.06,-1529.96 872.06,-1951.96 1242.06,-1951.96 1242.06,-1529.96 872.06,-1529.96"/>
</g>
<!-- Dealer -->
<g id="Dealer" class="node">
<title>Dealer</title>
<ellipse fill="none" stroke="black" stroke-width="0" cx="1753.5" cy="-1770.96" rx="315.24" ry="257.27"/>
<polygon fill="#1d71b8" stroke="transparent" points="1532.5,-1890.96 1532.5,-1950.96 1974.5,-1950.96 1974.5,-1890.96 1532.5,-1890.96"/>
<polygon fill="none" stroke="#29235c" points="1532.5,-1890.96 1532.5,-1950.96 1974.5,-1950.96 1974.5,-1890.96 1532.5,-1890.96"/>
<text text-anchor="start" x="1644.14" y="-1912.16" font-family="Helvetica,sans-Serif" font-weight="bold" font-size="32.00" fill="#ffffff"> &#160;&#160;&#160;&#160;&#160;&#160;Dealer &#160;&#160;&#160;&#160;&#160;&#160;</text>
<polygon fill="#e7e2dd" stroke="transparent" points="1532.5,-1830.96 1532.5,-1890.96 1974.5,-1890.96 1974.5,-1830.96 1532.5,-1830.96"/>
<polygon fill="none" stroke="#29235c" points="1532.5,-1830.96 1532.5,-1890.96 1974.5,-1890.96 1974.5,-1830.96 1532.5,-1830.96"/>
<text text-anchor="start" x="1543.5" y="-1852.16" font-family="Helvetica,sans-Serif" font-weight="bold" font-size="32.00" fill="#29235c">id</text>
<text text-anchor="start" x="1568.39" y="-1852.16" font-family="Helvetica,sans-Serif" font-size="32.00" fill="#29235c"> &#160;&#160;&#160;</text>
<text text-anchor="start" x="1821.28" y="-1852.16" font-family="Helvetica,sans-Serif" font-style="italic" font-size="32.00" fill="#29235c">INTEGER</text>
<polygon fill="#e7e2dd" stroke="transparent" points="1532.5,-1770.96 1532.5,-1830.96 1974.5,-1830.96 1974.5,-1770.96 1532.5,-1770.96"/>
<polygon fill="none" stroke="#29235c" points="1532.5,-1770.96 1532.5,-1830.96 1974.5,-1830.96 1974.5,-1770.96 1532.5,-1770.96"/>
<text text-anchor="start" x="1543.5" y="-1791.16" font-family="Helvetica,sans-Serif" font-size="32.00" fill="#29235c">name &#160;&#160;&#160;</text>
<text text-anchor="start" x="1807.07" y="-1792.16" font-family="Helvetica,sans-Serif" font-style="italic" font-size="32.00" fill="#29235c">VARCHAR</text>
<polygon fill="#e7e2dd" stroke="transparent" points="1532.5,-1710.96 1532.5,-1770.96 1974.5,-1770.96 1974.5,-1710.96 1532.5,-1710.96"/>
<polygon fill="none" stroke="#29235c" points="1532.5,-1710.96 1532.5,-1770.96 1974.5,-1770.96 1974.5,-1710.96 1532.5,-1710.96"/>
<text text-anchor="start" x="1543.5" y="-1731.16" font-family="Helvetica,sans-Serif" font-size="32.00" fill="#29235c">address &#160;&#160;&#160;</text>
<text text-anchor="start" x="1807.07" y="-1732.16" font-family="Helvetica,sans-Serif" font-style="italic" font-size="32.00" fill="#29235c">VARCHAR</text>
<polygon fill="#e7e2dd" stroke="transparent" points="1532.5,-1650.96 1532.5,-1710.96 1974.5,-1710.96 1974.5,-1650.96 1532.5,-1650.96"/>
<polygon fill="none" stroke="#29235c" points="1532.5,-1650.96 1532.5,-1710.96 1974.5,-1710.96 1974.5,-1650.96 1532.5,-1650.96"/>
<text text-anchor="start" x="1543.01" y="-1671.16" font-family="Helvetica,sans-Serif" font-size="32.00" fill="#29235c">contact_number &#160;&#160;&#160;</text>
<text text-anchor="start" x="1807.29" y="-1672.16" font-family="Helvetica,sans-Serif" font-style="italic" font-size="32.00" fill="#29235c">VARCHAR</text>
<polygon fill="#e7e2dd" stroke="transparent" points="1532.5,-1590.96 1532.5,-1650.96 1974.5,-1650.96 1974.5,-1590.96 1532.5,-1590.96"/>
<polygon fill="none" stroke="#29235c" points="1532.5,-1590.96 1532.5,-1650.96 1974.5,-1650.96 1974.5,-1590.96 1532.5,-1590.96"/>
<text text-anchor="start" x="1543.5" y="-1611.16" font-family="Helvetica,sans-Serif" font-size="32.00" fill="#29235c">inventory_limit &#160;&#160;&#160;</text>
<text text-anchor="start" x="1821.28" y="-1612.16" font-family="Helvetica,sans-Serif" font-style="italic" font-size="32.00" fill="#29235c">INTEGER</text>
<polygon fill="none" stroke="#29235c" stroke-width="2" points="1531.5,-1589.96 1531.5,-1951.96 1975.5,-1951.96 1975.5,-1589.96 1531.5,-1589.96"/>
</g>
<!-- Car&#45;&gt;Dealer -->
<!-- Car&#45;&gt;Dealer -->
<g id="edge2" class="edge">
<title>Car:e&#45;&gt;Dealer:w</title>
<path fill="none" stroke="#29235c" stroke-width="3" d="M1242.06,-1560.96C1423.9,-1560.96 1349.15,-1849.93 1521.46,-1860.65"/>
<polygon fill="#29235c" stroke="#29235c" stroke-width="3" points="1521.4,-1864.15 1531.5,-1860.96 1521.61,-1857.16 1521.4,-1864.15"/>
<text text-anchor="middle" x="1525.28" y="-1870.56" font-family="Helvetica,sans-Serif" font-size="32.00" fill="#29235c">*</text>
<text text-anchor="middle" x="1250.96" y="-1570.56" font-family="Helvetica,sans-Serif" font-size="32.00" fill="#29235c">1</text>
</g>
<!-- Customer -->
<g id="Customer" class="node">
<title>Customer</title>
<ellipse fill="none" stroke="black" stroke-width="0" cx="1057.06" cy="-420.96" rx="345.14" ry="257.27"/>
<polygon fill="#1d71b8" stroke="transparent" points="815.06,-540.96 815.06,-600.96 1299.06,-600.96 1299.06,-540.96 815.06,-540.96"/>
<polygon fill="none" stroke="#29235c" points="815.06,-540.96 815.06,-600.96 1299.06,-600.96 1299.06,-540.96 815.06,-540.96"/>
<text text-anchor="start" x="925.48" y="-562.16" font-family="Helvetica,sans-Serif" font-weight="bold" font-size="32.00" fill="#ffffff"> &#160;&#160;&#160;&#160;&#160;&#160;Customer &#160;&#160;&#160;&#160;&#160;&#160;</text>
<polygon fill="#e7e2dd" stroke="transparent" points="815.06,-480.96 815.06,-540.96 1299.06,-540.96 1299.06,-480.96 815.06,-480.96"/>
<polygon fill="none" stroke="#29235c" points="815.06,-480.96 815.06,-540.96 1299.06,-540.96 1299.06,-480.96 815.06,-480.96"/>
<text text-anchor="start" x="826.06" y="-502.16" font-family="Helvetica,sans-Serif" font-weight="bold" font-size="32.00" fill="#29235c">id</text>
<text text-anchor="start" x="850.95" y="-502.16" font-family="Helvetica,sans-Serif" font-size="32.00" fill="#29235c"> &#160;&#160;&#160;</text>
<text text-anchor="start" x="1145.84" y="-502.16" font-family="Helvetica,sans-Serif" font-style="italic" font-size="32.00" fill="#29235c">INTEGER</text>
<polygon fill="#e7e2dd" stroke="transparent" points="815.06,-420.96 815.06,-480.96 1299.06,-480.96 1299.06,-420.96 815.06,-420.96"/>
<polygon fill="none" stroke="#29235c" points="815.06,-420.96 815.06,-480.96 1299.06,-480.96 1299.06,-420.96 815.06,-420.96"/>
<text text-anchor="start" x="826.06" y="-441.16" font-family="Helvetica,sans-Serif" font-size="32.00" fill="#29235c">name &#160;&#160;&#160;</text>
<text text-anchor="start" x="1131.64" y="-442.16" font-family="Helvetica,sans-Serif" font-style="italic" font-size="32.00" fill="#29235c">VARCHAR</text>
<polygon fill="#e7e2dd" stroke="transparent" points="815.06,-360.96 815.06,-420.96 1299.06,-420.96 1299.06,-360.96 815.06,-360.96"/>
<polygon fill="none" stroke="#29235c" points="815.06,-360.96 815.06,-420.96 1299.06,-420.96 1299.06,-360.96 815.06,-360.96"/>
<text text-anchor="start" x="826.06" y="-381.16" font-family="Helvetica,sans-Serif" font-size="32.00" fill="#29235c">email &#160;&#160;&#160;</text>
<text text-anchor="start" x="1131.64" y="-382.16" font-family="Helvetica,sans-Serif" font-style="italic" font-size="32.00" fill="#29235c">VARCHAR</text>
<polygon fill="#e7e2dd" stroke="transparent" points="815.06,-300.96 815.06,-360.96 1299.06,-360.96 1299.06,-300.96 815.06,-300.96"/>
<polygon fill="none" stroke="#29235c" points="815.06,-300.96 815.06,-360.96 1299.06,-360.96 1299.06,-300.96 815.06,-300.96"/>
<text text-anchor="start" x="826.06" y="-321.16" font-family="Helvetica,sans-Serif" font-size="32.00" fill="#29235c">phone &#160;&#160;&#160;</text>
<text text-anchor="start" x="1131.64" y="-322.16" font-family="Helvetica,sans-Serif" font-style="italic" font-size="32.00" fill="#29235c">VARCHAR</text>
<polygon fill="#e7e2dd" stroke="transparent" points="815.06,-240.96 815.06,-300.96 1299.06,-300.96 1299.06,-240.96 815.06,-240.96"/>
<polygon fill="none" stroke="#29235c" points="815.06,-240.96 815.06,-300.96 1299.06,-300.96 1299.06,-240.96 815.06,-240.96"/>
<text text-anchor="start" x="826" y="-261.16" font-family="Helvetica,sans-Serif" font-size="32.00" fill="#29235c">unpaid_sales_count &#160;&#160;&#160;</text>
<text text-anchor="start" x="1145.95" y="-262.16" font-family="Helvetica,sans-Serif" font-style="italic" font-size="32.00" fill="#29235c">INTEGER</text>
<polygon fill="none" stroke="#29235c" stroke-width="2" points="814.06,-239.96 814.06,-601.96 1300.06,-601.96 1300.06,-239.96 814.06,-239.96"/>
</g>
<!-- Employee -->
<g id="Employee" class="node">
<title>Employee</title>
<ellipse fill="none" stroke="black" stroke-width="0" cx="338" cy="-3453.96" rx="258.6" ry="257.27"/>
<polygon fill="#1d71b8" stroke="transparent" points="157,-3573.96 157,-3633.96 519,-3633.96 519,-3573.96 157,-3573.96"/>
<polygon fill="none" stroke="#29235c" points="157,-3573.96 157,-3633.96 519,-3633.96 519,-3573.96 157,-3573.96"/>
<text text-anchor="start" x="204.62" y="-3595.16" font-family="Helvetica,sans-Serif" font-weight="bold" font-size="32.00" fill="#ffffff"> &#160;&#160;&#160;&#160;&#160;&#160;Employee &#160;&#160;&#160;&#160;&#160;&#160;</text>
<polygon fill="#e7e2dd" stroke="transparent" points="157,-3513.96 157,-3573.96 519,-3573.96 519,-3513.96 157,-3513.96"/>
<polygon fill="none" stroke="#29235c" points="157,-3513.96 157,-3573.96 519,-3573.96 519,-3513.96 157,-3513.96"/>
<text text-anchor="start" x="168" y="-3535.16" font-family="Helvetica,sans-Serif" font-weight="bold" font-size="32.00" fill="#29235c">id</text>
<text text-anchor="start" x="192.89" y="-3535.16" font-family="Helvetica,sans-Serif" font-size="32.00" fill="#29235c"> &#160;&#160;&#160;</text>
<text text-anchor="start" x="365.78" y="-3535.16" font-family="Helvetica,sans-Serif" font-style="italic" font-size="32.00" fill="#29235c">INTEGER</text>
<polygon fill="#e7e2dd" stroke="transparent" points="157,-3453.96 157,-3513.96 519,-3513.96 519,-3453.96 157,-3453.96"/>
<polygon fill="none" stroke="#29235c" points="157,-3453.96 157,-3513.96 519,-3513.96 519,-3453.96 157,-3453.96"/>
<text text-anchor="start" x="167.54" y="-3474.16" font-family="Helvetica,sans-Serif" font-size="32.00" fill="#29235c">first_name &#160;&#160;&#160;</text>
<text text-anchor="start" x="351.78" y="-3475.16" font-family="Helvetica,sans-Serif" font-style="italic" font-size="32.00" fill="#29235c">VARCHAR</text>
<polygon fill="#e7e2dd" stroke="transparent" points="157,-3393.96 157,-3453.96 519,-3453.96 519,-3393.96 157,-3393.96"/>
<polygon fill="none" stroke="#29235c" points="157,-3393.96 157,-3453.96 519,-3453.96 519,-3393.96 157,-3393.96"/>
<text text-anchor="start" x="168" y="-3414.16" font-family="Helvetica,sans-Serif" font-size="32.00" fill="#29235c">last_name &#160;&#160;&#160;</text>
<text text-anchor="start" x="351.78" y="-3415.16" font-family="Helvetica,sans-Serif" font-style="italic" font-size="32.00" fill="#29235c">VARCHAR</text>
<polygon fill="#e7e2dd" stroke="transparent" points="157,-3333.96 157,-3393.96 519,-3393.96 519,-3333.96 157,-3333.96"/>
<polygon fill="none" stroke="#29235c" points="157,-3333.96 157,-3393.96 519,-3393.96 519,-3333.96 157,-3333.96"/>
<text text-anchor="start" x="168" y="-3354.16" font-family="Helvetica,sans-Serif" font-size="32.00" fill="#29235c">position &#160;&#160;&#160;</text>
<text text-anchor="start" x="351.57" y="-3355.16" font-family="Helvetica,sans-Serif" font-style="italic" font-size="32.00" fill="#29235c">VARCHAR</text>
<polygon fill="#e7e2dd" stroke="transparent" points="157,-3273.96 157,-3333.96 519,-3333.96 519,-3273.96 157,-3273.96"/>
<polygon fill="none" stroke="#29235c" points="157,-3273.96 157,-3333.96 519,-3333.96 519,-3273.96 157,-3273.96"/>
<text text-anchor="start" x="168" y="-3294.16" font-family="Helvetica,sans-Serif" font-size="32.00" fill="#29235c">email &#160;&#160;&#160;</text>
<text text-anchor="start" x="351.57" y="-3295.16" font-family="Helvetica,sans-Serif" font-style="italic" font-size="32.00" fill="#29235c">VARCHAR</text>
<polygon fill="none" stroke="#29235c" stroke-width="2" points="156,-3272.96 156,-3634.96 520,-3634.96 520,-3272.96 156,-3272.96"/>
</g>
<!-- FinanceOption -->
<g id="FinanceOption" class="node">
<title>FinanceOption</title>
<ellipse fill="none" stroke="black" stroke-width="0" cx="338" cy="-3943.96" rx="269.32" ry="214.92"/>
<polygon fill="#1d71b8" stroke="transparent" points="150,-4033.96 150,-4093.96 527,-4093.96 527,-4033.96 150,-4033.96"/>
<polygon fill="none" stroke="#29235c" points="150,-4033.96 150,-4093.96 527,-4093.96 527,-4033.96 150,-4033.96"/>
<text text-anchor="start" x="172.22" y="-4055.16" font-family="Helvetica,sans-Serif" font-weight="bold" font-size="32.00" fill="#ffffff"> &#160;&#160;&#160;&#160;&#160;&#160;FinanceOption &#160;&#160;&#160;&#160;&#160;&#160;</text>
<polygon fill="#e7e2dd" stroke="transparent" points="150,-3973.96 150,-4033.96 527,-4033.96 527,-3973.96 150,-3973.96"/>
<polygon fill="none" stroke="#29235c" points="150,-3973.96 150,-4033.96 527,-4033.96 527,-3973.96 150,-3973.96"/>
<text text-anchor="start" x="161" y="-3995.16" font-family="Helvetica,sans-Serif" font-weight="bold" font-size="32.00" fill="#29235c">id</text>
<text text-anchor="start" x="185.89" y="-3995.16" font-family="Helvetica,sans-Serif" font-size="32.00" fill="#29235c"> &#160;&#160;&#160;</text>
<text text-anchor="start" x="373.78" y="-3995.16" font-family="Helvetica,sans-Serif" font-style="italic" font-size="32.00" fill="#29235c">INTEGER</text>
<polygon fill="#e7e2dd" stroke="transparent" points="150,-3913.96 150,-3973.96 527,-3973.96 527,-3913.96 150,-3913.96"/>
<polygon fill="none" stroke="#29235c" points="150,-3913.96 150,-3973.96 527,-3973.96 527,-3913.96 150,-3913.96"/>
<text text-anchor="start" x="161" y="-3934.16" font-family="Helvetica,sans-Serif" font-size="32.00" fill="#29235c">name &#160;&#160;&#160;</text>
<text text-anchor="start" x="359.57" y="-3935.16" font-family="Helvetica,sans-Serif" font-style="italic" font-size="32.00" fill="#29235c">VARCHAR</text>
<polygon fill="#e7e2dd" stroke="transparent" points="150,-3853.96 150,-3913.96 527,-3913.96 527,-3853.96 150,-3853.96"/>
<polygon fill="none" stroke="#29235c" points="150,-3853.96 150,-3913.96 527,-3913.96 527,-3853.96 150,-3853.96"/>
<text text-anchor="start" x="161" y="-3874.16" font-family="Helvetica,sans-Serif" font-size="32.00" fill="#29235c">description &#160;&#160;&#160;</text>
<text text-anchor="start" x="359.57" y="-3875.16" font-family="Helvetica,sans-Serif" font-style="italic" font-size="32.00" fill="#29235c">VARCHAR</text>
<polygon fill="#e7e2dd" stroke="transparent" points="150,-3793.96 150,-3853.96 527,-3853.96 527,-3793.96 150,-3793.96"/>
<polygon fill="none" stroke="#29235c" points="150,-3793.96 150,-3853.96 527,-3853.96 527,-3793.96 150,-3793.96"/>
<text text-anchor="start" x="160.8" y="-3814.16" font-family="Helvetica,sans-Serif" font-size="32.00" fill="#29235c">interest_rate &#160;&#160;&#160;</text>
<text text-anchor="start" x="373.89" y="-3815.16" font-family="Helvetica,sans-Serif" font-style="italic" font-size="32.00" fill="#29235c">INTEGER</text>
<polygon fill="none" stroke="#29235c" stroke-width="2" points="148.5,-3792.96 148.5,-4094.96 527.5,-4094.96 527.5,-3792.96 148.5,-3792.96"/>
</g>
<!-- Insurance -->
<g id="Insurance" class="node">
<title>Insurance</title>
<ellipse fill="none" stroke="black" stroke-width="0" cx="338" cy="-4391.96" rx="323.3" ry="214.92"/>
<polygon fill="#1d71b8" stroke="transparent" points="112,-4481.96 112,-4541.96 565,-4541.96 565,-4481.96 112,-4481.96"/>
<polygon fill="none" stroke="#29235c" points="112,-4481.96 112,-4541.96 565,-4541.96 565,-4481.96 112,-4481.96"/>
<text text-anchor="start" x="206" y="-4503.16" font-family="Helvetica,sans-Serif" font-weight="bold" font-size="32.00" fill="#ffffff"> &#160;&#160;&#160;&#160;&#160;&#160;Insurance &#160;&#160;&#160;&#160;&#160;&#160;</text>
<polygon fill="#e7e2dd" stroke="transparent" points="112,-4421.96 112,-4481.96 565,-4481.96 565,-4421.96 112,-4421.96"/>
<polygon fill="none" stroke="#29235c" points="112,-4421.96 112,-4481.96 565,-4481.96 565,-4421.96 112,-4421.96"/>
<text text-anchor="start" x="123" y="-4443.16" font-family="Helvetica,sans-Serif" font-weight="bold" font-size="32.00" fill="#29235c">id</text>
<text text-anchor="start" x="147.89" y="-4443.16" font-family="Helvetica,sans-Serif" font-size="32.00" fill="#29235c"> &#160;&#160;&#160;</text>
<text text-anchor="start" x="411.78" y="-4443.16" font-family="Helvetica,sans-Serif" font-style="italic" font-size="32.00" fill="#29235c">INTEGER</text>
<polygon fill="#e7e2dd" stroke="transparent" points="112,-4361.96 112,-4421.96 565,-4421.96 565,-4361.96 112,-4361.96"/>
<polygon fill="none" stroke="#29235c" points="112,-4361.96 112,-4421.96 565,-4421.96 565,-4361.96 112,-4361.96"/>
<text text-anchor="start" x="123" y="-4382.16" font-family="Helvetica,sans-Serif" font-size="32.00" fill="#29235c">name &#160;&#160;&#160;</text>
<text text-anchor="start" x="397.57" y="-4383.16" font-family="Helvetica,sans-Serif" font-style="italic" font-size="32.00" fill="#29235c">VARCHAR</text>
<polygon fill="#e7e2dd" stroke="transparent" points="112,-4301.96 112,-4361.96 565,-4361.96 565,-4301.96 112,-4301.96"/>
<polygon fill="none" stroke="#29235c" points="112,-4301.96 112,-4361.96 565,-4361.96 565,-4301.96 112,-4301.96"/>
<text text-anchor="start" x="123" y="-4322.16" font-family="Helvetica,sans-Serif" font-size="32.00" fill="#29235c">policy_details &#160;&#160;&#160;</text>
<text text-anchor="start" x="397.57" y="-4323.16" font-family="Helvetica,sans-Serif" font-style="italic" font-size="32.00" fill="#29235c">VARCHAR</text>
<polygon fill="#e7e2dd" stroke="transparent" points="112,-4241.96 112,-4301.96 565,-4301.96 565,-4241.96 112,-4241.96"/>
<polygon fill="none" stroke="#29235c" points="112,-4241.96 112,-4301.96 565,-4301.96 565,-4241.96 112,-4241.96"/>
<text text-anchor="start" x="122.6" y="-4262.16" font-family="Helvetica,sans-Serif" font-size="32.00" fill="#29235c">monthly_premium &#160;&#160;&#160;</text>
<text text-anchor="start" x="411.89" y="-4263.16" font-family="Helvetica,sans-Serif" font-style="italic" font-size="32.00" fill="#29235c">INTEGER</text>
<polygon fill="none" stroke="#29235c" stroke-width="2" points="110.5,-4240.96 110.5,-4542.96 565.5,-4542.96 565.5,-4240.96 110.5,-4240.96"/>
</g>
<!-- Inventory -->
<g id="Inventory" class="node">
<title>Inventory</title>
<ellipse fill="none" stroke="black" stroke-width="0" cx="338" cy="-2920.96" rx="284.01" ry="257.27"/>
<polygon fill="#1d71b8" stroke="transparent" points="139,-3040.96 139,-3100.96 537,-3100.96 537,-3040.96 139,-3040.96"/>
<polygon fill="none" stroke="#29235c" points="139,-3040.96 139,-3100.96 537,-3100.96 537,-3040.96 139,-3040.96"/>
<text text-anchor="start" x="209.95" y="-3062.16" font-family="Helvetica,sans-Serif" font-weight="bold" font-size="32.00" fill="#ffffff"> &#160;&#160;&#160;&#160;&#160;&#160;Inventory &#160;&#160;&#160;&#160;&#160;&#160;</text>
<polygon fill="#e7e2dd" stroke="transparent" points="139,-2980.96 139,-3040.96 537,-3040.96 537,-2980.96 139,-2980.96"/>
<polygon fill="none" stroke="#29235c" points="139,-2980.96 139,-3040.96 537,-3040.96 537,-2980.96 139,-2980.96"/>
<text text-anchor="start" x="150" y="-3002.16" font-family="Helvetica,sans-Serif" font-weight="bold" font-size="32.00" fill="#29235c">id</text>
<text text-anchor="start" x="174.89" y="-3002.16" font-family="Helvetica,sans-Serif" font-size="32.00" fill="#29235c"> &#160;&#160;&#160;</text>
<text text-anchor="start" x="383.78" y="-3002.16" font-family="Helvetica,sans-Serif" font-style="italic" font-size="32.00" fill="#29235c">INTEGER</text>
<polygon fill="#e7e2dd" stroke="transparent" points="139,-2920.96 139,-2980.96 537,-2980.96 537,-2920.96 139,-2920.96"/>
<polygon fill="none" stroke="#29235c" points="139,-2920.96 139,-2980.96 537,-2980.96 537,-2920.96 139,-2920.96"/>
<text text-anchor="start" x="150" y="-2941.16" font-family="Helvetica,sans-Serif" font-size="32.00" fill="#29235c">car_id &#160;&#160;&#160;</text>
<text text-anchor="start" x="383.78" y="-2942.16" font-family="Helvetica,sans-Serif" font-style="italic" font-size="32.00" fill="#29235c">INTEGER</text>
<polygon fill="#e7e2dd" stroke="transparent" points="139,-2860.96 139,-2920.96 537,-2920.96 537,-2860.96 139,-2860.96"/>
<polygon fill="none" stroke="#29235c" points="139,-2860.96 139,-2920.96 537,-2920.96 537,-2860.96 139,-2860.96"/>
<text text-anchor="start" x="149.63" y="-2881.16" font-family="Helvetica,sans-Serif" font-size="32.00" fill="#29235c">stock_amount &#160;&#160;&#160;</text>
<text text-anchor="start" x="383.89" y="-2882.16" font-family="Helvetica,sans-Serif" font-style="italic" font-size="32.00" fill="#29235c">INTEGER</text>
<polygon fill="#e7e2dd" stroke="transparent" points="139,-2800.96 139,-2860.96 537,-2860.96 537,-2800.96 139,-2800.96"/>
<polygon fill="none" stroke="#29235c" points="139,-2800.96 139,-2860.96 537,-2860.96 537,-2800.96 139,-2800.96"/>
<text text-anchor="start" x="150" y="-2821.16" font-family="Helvetica,sans-Serif" font-size="32.00" fill="#29235c">location &#160;&#160;&#160;</text>
<text text-anchor="start" x="369.57" y="-2822.16" font-family="Helvetica,sans-Serif" font-style="italic" font-size="32.00" fill="#29235c">VARCHAR</text>
<polygon fill="#e7e2dd" stroke="transparent" points="139,-2740.96 139,-2800.96 537,-2800.96 537,-2740.96 139,-2740.96"/>
<polygon fill="none" stroke="#29235c" points="139,-2740.96 139,-2800.96 537,-2800.96 537,-2740.96 139,-2740.96"/>
<text text-anchor="start" x="150" y="-2761.16" font-family="Helvetica,sans-Serif" font-size="32.00" fill="#29235c">total_stock &#160;&#160;&#160;</text>
<text text-anchor="start" x="383.78" y="-2762.16" font-family="Helvetica,sans-Serif" font-style="italic" font-size="32.00" fill="#29235c">INTEGER</text>
<polygon fill="none" stroke="#29235c" stroke-width="2" points="138,-2739.96 138,-3101.96 538,-3101.96 538,-2739.96 138,-2739.96"/>
</g>
<!-- Inventory&#45;&gt;Car -->
<!-- Inventory&#45;&gt;Car -->
<g id="edge4" class="edge">
<title>Inventory:e&#45;&gt;Car:w</title>
<path fill="none" stroke="#29235c" stroke-width="3" d="M538,-2950.96C787.88,-2950.96 623.36,-1890.56 861.91,-1861.57"/>
<polygon fill="#29235c" stroke="#29235c" stroke-width="3" points="862.29,-1865.05 872.06,-1860.96 861.87,-1858.06 862.29,-1865.05"/>
<text text-anchor="middle" x="878.28" y="-1870.56" font-family="Helvetica,sans-Serif" font-size="32.00" fill="#29235c">*</text>
<text text-anchor="middle" x="546.89" y="-2960.56" font-family="Helvetica,sans-Serif" font-size="32.00" fill="#29235c">1</text>
</g>
<!-- Repair -->
<g id="Repair" class="node">
<title>Repair</title>
<ellipse fill="none" stroke="black" stroke-width="0" cx="338" cy="-2345.96" rx="272.89" ry="299.63"/>
<polygon fill="#1d71b8" stroke="transparent" points="147,-2495.96 147,-2555.96 529,-2555.96 529,-2495.96 147,-2495.96"/>
<polygon fill="none" stroke="#29235c" points="147,-2495.96 147,-2555.96 529,-2555.96 529,-2495.96 147,-2495.96"/>
<text text-anchor="start" x="228.64" y="-2517.16" font-family="Helvetica,sans-Serif" font-weight="bold" font-size="32.00" fill="#ffffff"> &#160;&#160;&#160;&#160;&#160;&#160;Repair &#160;&#160;&#160;&#160;&#160;&#160;</text>
<polygon fill="#e7e2dd" stroke="transparent" points="147,-2435.96 147,-2495.96 529,-2495.96 529,-2435.96 147,-2435.96"/>
<polygon fill="none" stroke="#29235c" points="147,-2435.96 147,-2495.96 529,-2495.96 529,-2435.96 147,-2435.96"/>
<text text-anchor="start" x="158" y="-2457.16" font-family="Helvetica,sans-Serif" font-weight="bold" font-size="32.00" fill="#29235c">id</text>
<text text-anchor="start" x="182.89" y="-2457.16" font-family="Helvetica,sans-Serif" font-size="32.00" fill="#29235c"> &#160;&#160;&#160;</text>
<text text-anchor="start" x="375.78" y="-2457.16" font-family="Helvetica,sans-Serif" font-style="italic" font-size="32.00" fill="#29235c">INTEGER</text>
<polygon fill="#e7e2dd" stroke="transparent" points="147,-2375.96 147,-2435.96 529,-2435.96 529,-2375.96 147,-2375.96"/>
<polygon fill="none" stroke="#29235c" points="147,-2375.96 147,-2435.96 529,-2435.96 529,-2375.96 147,-2375.96"/>
<text text-anchor="start" x="158" y="-2396.16" font-family="Helvetica,sans-Serif" font-size="32.00" fill="#29235c">car_id &#160;&#160;&#160;</text>
<text text-anchor="start" x="375.78" y="-2397.16" font-family="Helvetica,sans-Serif" font-style="italic" font-size="32.00" fill="#29235c">INTEGER</text>
<polygon fill="#e7e2dd" stroke="transparent" points="147,-2315.96 147,-2375.96 529,-2375.96 529,-2315.96 147,-2315.96"/>
<polygon fill="none" stroke="#29235c" points="147,-2315.96 147,-2375.96 529,-2375.96 529,-2315.96 147,-2315.96"/>
<text text-anchor="start" x="158" y="-2336.16" font-family="Helvetica,sans-Serif" font-size="32.00" fill="#29235c">repair_date &#160;&#160;&#160;</text>
<text text-anchor="start" x="356.23" y="-2337.16" font-family="Helvetica,sans-Serif" font-style="italic" font-size="32.00" fill="#29235c">DATETIME</text>
<polygon fill="#e7e2dd" stroke="transparent" points="147,-2255.96 147,-2315.96 529,-2315.96 529,-2255.96 147,-2255.96"/>
<polygon fill="none" stroke="#29235c" points="147,-2255.96 147,-2315.96 529,-2315.96 529,-2255.96 147,-2255.96"/>
<text text-anchor="start" x="158" y="-2276.16" font-family="Helvetica,sans-Serif" font-size="32.00" fill="#29235c">cost &#160;&#160;&#160;</text>
<text text-anchor="start" x="375.78" y="-2277.16" font-family="Helvetica,sans-Serif" font-style="italic" font-size="32.00" fill="#29235c">INTEGER</text>
<polygon fill="#e7e2dd" stroke="transparent" points="147,-2195.96 147,-2255.96 529,-2255.96 529,-2195.96 147,-2195.96"/>
<polygon fill="none" stroke="#29235c" points="147,-2195.96 147,-2255.96 529,-2255.96 529,-2195.96 147,-2195.96"/>
<text text-anchor="start" x="157.75" y="-2216.16" font-family="Helvetica,sans-Serif" font-size="32.00" fill="#29235c">repair_shop &#160;&#160;&#160;</text>
<text text-anchor="start" x="361.78" y="-2217.16" font-family="Helvetica,sans-Serif" font-style="italic" font-size="32.00" fill="#29235c">VARCHAR</text>
<polygon fill="#e7e2dd" stroke="transparent" points="147,-2135.96 147,-2195.96 529,-2195.96 529,-2135.96 147,-2135.96"/>
<polygon fill="none" stroke="#29235c" points="147,-2135.96 147,-2195.96 529,-2195.96 529,-2135.96 147,-2135.96"/>
<text text-anchor="start" x="158" y="-2156.16" font-family="Helvetica,sans-Serif" font-size="32.00" fill="#29235c">description &#160;&#160;&#160;</text>
<text text-anchor="start" x="361.57" y="-2157.16" font-family="Helvetica,sans-Serif" font-style="italic" font-size="32.00" fill="#29235c">VARCHAR</text>
<polygon fill="none" stroke="#29235c" stroke-width="2" points="146,-2134.96 146,-2556.96 530,-2556.96 530,-2134.96 146,-2134.96"/>
</g>
<!-- Repair&#45;&gt;Car -->
<!-- Repair&#45;&gt;Car -->
<g id="edge6" class="edge">
<title>Repair:e&#45;&gt;Car:w</title>
<path fill="none" stroke="#29235c" stroke-width="3" d="M530,-2405.96C812.49,-2405.96 591.62,-1874.18 861.82,-1861.2"/>
<polygon fill="#29235c" stroke="#29235c" stroke-width="3" points="862.15,-1864.7 872.06,-1860.96 861.98,-1857.7 862.15,-1864.7"/>
<text text-anchor="middle" x="878.28" y="-1832.16" font-family="Helvetica,sans-Serif" font-size="32.00" fill="#29235c">*</text>
<text text-anchor="middle" x="538.89" y="-2415.56" font-family="Helvetica,sans-Serif" font-size="32.00" fill="#29235c">1</text>
</g>
<!-- Sale -->
<g id="Sale" class="node">
<title>Sale</title>
<ellipse fill="none" stroke="black" stroke-width="0" cx="338" cy="-747.96" rx="266.66" ry="299.63"/>
<polygon fill="#1d71b8" stroke="transparent" points="152,-897.96 152,-957.96 525,-957.96 525,-897.96 152,-897.96"/>
<polygon fill="none" stroke="#29235c" points="152,-897.96 152,-957.96 525,-957.96 525,-897.96 152,-897.96"/>
<text text-anchor="start" x="244.24" y="-919.16" font-family="Helvetica,sans-Serif" font-weight="bold" font-size="32.00" fill="#ffffff"> &#160;&#160;&#160;&#160;&#160;&#160;Sale &#160;&#160;&#160;&#160;&#160;&#160;</text>
<polygon fill="#e7e2dd" stroke="transparent" points="152,-837.96 152,-897.96 525,-897.96 525,-837.96 152,-837.96"/>
<polygon fill="none" stroke="#29235c" points="152,-837.96 152,-897.96 525,-897.96 525,-837.96 152,-837.96"/>
<text text-anchor="start" x="163" y="-859.16" font-family="Helvetica,sans-Serif" font-weight="bold" font-size="32.00" fill="#29235c">id</text>
<text text-anchor="start" x="187.89" y="-859.16" font-family="Helvetica,sans-Serif" font-size="32.00" fill="#29235c"> &#160;&#160;&#160;</text>
<text text-anchor="start" x="371.78" y="-859.16" font-family="Helvetica,sans-Serif" font-style="italic" font-size="32.00" fill="#29235c">INTEGER</text>
<polygon fill="#e7e2dd" stroke="transparent" points="152,-777.96 152,-837.96 525,-837.96 525,-777.96 152,-777.96"/>
<polygon fill="none" stroke="#29235c" points="152,-777.96 152,-837.96 525,-837.96 525,-777.96 152,-777.96"/>
<text text-anchor="start" x="163" y="-798.16" font-family="Helvetica,sans-Serif" font-size="32.00" fill="#29235c">car_id &#160;&#160;&#160;</text>
<text text-anchor="start" x="371.78" y="-799.16" font-family="Helvetica,sans-Serif" font-style="italic" font-size="32.00" fill="#29235c">INTEGER</text>
<polygon fill="#e7e2dd" stroke="transparent" points="152,-717.96 152,-777.96 525,-777.96 525,-717.96 152,-717.96"/>
<polygon fill="none" stroke="#29235c" points="152,-717.96 152,-777.96 525,-777.96 525,-717.96 152,-717.96"/>
<text text-anchor="start" x="162.59" y="-738.16" font-family="Helvetica,sans-Serif" font-size="32.00" fill="#29235c">customer_id &#160;&#160;&#160;</text>
<text text-anchor="start" x="371.89" y="-739.16" font-family="Helvetica,sans-Serif" font-style="italic" font-size="32.00" fill="#29235c">INTEGER</text>
<polygon fill="#e7e2dd" stroke="transparent" points="152,-657.96 152,-717.96 525,-717.96 525,-657.96 152,-657.96"/>
<polygon fill="none" stroke="#29235c" points="152,-657.96 152,-717.96 525,-717.96 525,-657.96 152,-657.96"/>
<text text-anchor="start" x="163" y="-678.16" font-family="Helvetica,sans-Serif" font-size="32.00" fill="#29235c">sale_date &#160;&#160;&#160;</text>
<text text-anchor="start" x="352.23" y="-679.16" font-family="Helvetica,sans-Serif" font-style="italic" font-size="32.00" fill="#29235c">DATETIME</text>
<polygon fill="#e7e2dd" stroke="transparent" points="152,-597.96 152,-657.96 525,-657.96 525,-597.96 152,-597.96"/>
<polygon fill="none" stroke="#29235c" points="152,-597.96 152,-657.96 525,-657.96 525,-597.96 152,-597.96"/>
<text text-anchor="start" x="163" y="-618.16" font-family="Helvetica,sans-Serif" font-size="32.00" fill="#29235c">amount &#160;&#160;&#160;</text>
<text text-anchor="start" x="371.78" y="-619.16" font-family="Helvetica,sans-Serif" font-style="italic" font-size="32.00" fill="#29235c">INTEGER</text>
<polygon fill="#e7e2dd" stroke="transparent" points="152,-537.96 152,-597.96 525,-597.96 525,-537.96 152,-537.96"/>
<polygon fill="none" stroke="#29235c" points="152,-537.96 152,-597.96 525,-597.96 525,-537.96 152,-537.96"/>
<text text-anchor="start" x="163" y="-558.16" font-family="Helvetica,sans-Serif" font-size="32.00" fill="#29235c">paid &#160;&#160;&#160;</text>
<text text-anchor="start" x="359.3" y="-559.16" font-family="Helvetica,sans-Serif" font-style="italic" font-size="32.00" fill="#29235c">BOOLEAN</text>
<polygon fill="none" stroke="#29235c" stroke-width="2" points="150.5,-536.96 150.5,-958.96 525.5,-958.96 525.5,-536.96 150.5,-536.96"/>
</g>
<!-- Sale&#45;&gt;Car -->
<!-- Sale&#45;&gt;Car -->
<g id="edge8" class="edge">
<title>Sale:e&#45;&gt;Car:w</title>
<path fill="none" stroke="#29235c" stroke-width="3" d="M526,-807.96C655.19,-807.96 626.79,-937.5 675.99,-1056.96 814.76,-1393.9 510,-1852.36 862,-1860.84"/>
<polygon fill="#29235c" stroke="#29235c" stroke-width="3" points="862.02,-1864.34 872.06,-1860.96 862.1,-1857.34 862.02,-1864.34"/>
<text text-anchor="middle" x="865.84" y="-1870.56" font-family="Helvetica,sans-Serif" font-size="32.00" fill="#29235c">*</text>
<text text-anchor="middle" x="534.89" y="-779.16" font-family="Helvetica,sans-Serif" font-size="32.00" fill="#29235c">1</text>
</g>
<!-- Sale&#45;&gt;Customer -->
<!-- Sale&#45;&gt;Customer -->
<g id="edge10" class="edge">
<title>Sale:e&#45;&gt;Customer:w</title>
<path fill="none" stroke="#29235c" stroke-width="3" d="M526,-747.96C688.23,-747.96 650.04,-521.03 803.66,-511.28"/>
<polygon fill="#29235c" stroke="#29235c" stroke-width="3" points="804.18,-514.77 814.06,-510.96 803.96,-507.77 804.18,-514.77"/>
<text text-anchor="middle" x="820.28" y="-482.16" font-family="Helvetica,sans-Serif" font-size="32.00" fill="#29235c">*</text>
<text text-anchor="middle" x="534.89" y="-719.16" font-family="Helvetica,sans-Serif" font-size="32.00" fill="#29235c">1</text>
</g>
<!-- ServiceAppointment -->
<g id="ServiceAppointment" class="node">
<title>ServiceAppointment</title>
<ellipse fill="none" stroke="black" stroke-width="0" cx="338" cy="-1770.96" rx="337.99" ry="257.27"/>
<polygon fill="#1d71b8" stroke="transparent" points="101,-1890.96 101,-1950.96 575,-1950.96 575,-1890.96 101,-1890.96"/>
<polygon fill="none" stroke="#29235c" points="101,-1890.96 101,-1950.96 575,-1950.96 575,-1890.96 101,-1890.96"/>
<text text-anchor="start" x="132.61" y="-1912.16" font-family="Helvetica,sans-Serif" font-weight="bold" font-size="32.00" fill="#ffffff"> &#160;&#160;&#160;&#160;&#160;&#160;ServiceAppointment &#160;&#160;&#160;&#160;&#160;&#160;</text>
<polygon fill="#e7e2dd" stroke="transparent" points="101,-1830.96 101,-1890.96 575,-1890.96 575,-1830.96 101,-1830.96"/>
<polygon fill="none" stroke="#29235c" points="101,-1830.96 101,-1890.96 575,-1890.96 575,-1830.96 101,-1830.96"/>
<text text-anchor="start" x="112" y="-1852.16" font-family="Helvetica,sans-Serif" font-weight="bold" font-size="32.00" fill="#29235c">id</text>
<text text-anchor="start" x="136.89" y="-1852.16" font-family="Helvetica,sans-Serif" font-size="32.00" fill="#29235c"> &#160;&#160;&#160;</text>
<text text-anchor="start" x="421.78" y="-1852.16" font-family="Helvetica,sans-Serif" font-style="italic" font-size="32.00" fill="#29235c">INTEGER</text>
<polygon fill="#e7e2dd" stroke="transparent" points="101,-1770.96 101,-1830.96 575,-1830.96 575,-1770.96 101,-1770.96"/>
<polygon fill="none" stroke="#29235c" points="101,-1770.96 101,-1830.96 575,-1830.96 575,-1770.96 101,-1770.96"/>
<text text-anchor="start" x="112" y="-1791.16" font-family="Helvetica,sans-Serif" font-size="32.00" fill="#29235c">car_id &#160;&#160;&#160;</text>
<text text-anchor="start" x="421.78" y="-1792.16" font-family="Helvetica,sans-Serif" font-style="italic" font-size="32.00" fill="#29235c">INTEGER</text>
<polygon fill="#e7e2dd" stroke="transparent" points="101,-1710.96 101,-1770.96 575,-1770.96 575,-1710.96 101,-1710.96"/>
<polygon fill="none" stroke="#29235c" points="101,-1710.96 101,-1770.96 575,-1770.96 575,-1710.96 101,-1710.96"/>
<text text-anchor="start" x="111.66" y="-1731.16" font-family="Helvetica,sans-Serif" font-size="32.00" fill="#29235c">appointment_date &#160;&#160;&#160;</text>
<text text-anchor="start" x="402.61" y="-1732.16" font-family="Helvetica,sans-Serif" font-style="italic" font-size="32.00" fill="#29235c">DATETIME</text>
<polygon fill="#e7e2dd" stroke="transparent" points="101,-1650.96 101,-1710.96 575,-1710.96 575,-1650.96 101,-1650.96"/>
<polygon fill="none" stroke="#29235c" points="101,-1650.96 101,-1710.96 575,-1710.96 575,-1650.96 101,-1650.96"/>
<text text-anchor="start" x="112" y="-1671.16" font-family="Helvetica,sans-Serif" font-size="32.00" fill="#29235c">serviced_by &#160;&#160;&#160;</text>
<text text-anchor="start" x="407.57" y="-1672.16" font-family="Helvetica,sans-Serif" font-style="italic" font-size="32.00" fill="#29235c">VARCHAR</text>
<polygon fill="#e7e2dd" stroke="transparent" points="101,-1590.96 101,-1650.96 575,-1650.96 575,-1590.96 101,-1590.96"/>
<polygon fill="none" stroke="#29235c" points="101,-1590.96 101,-1650.96 575,-1650.96 575,-1590.96 101,-1590.96"/>
<text text-anchor="start" x="112" y="-1611.16" font-family="Helvetica,sans-Serif" font-size="32.00" fill="#29235c">notes &#160;&#160;&#160;</text>
<text text-anchor="start" x="407.57" y="-1612.16" font-family="Helvetica,sans-Serif" font-style="italic" font-size="32.00" fill="#29235c">VARCHAR</text>
<polygon fill="none" stroke="#29235c" stroke-width="2" points="100,-1589.96 100,-1951.96 576,-1951.96 576,-1589.96 100,-1589.96"/>
</g>
<!-- ServiceAppointment&#45;&gt;Car -->
<!-- ServiceAppointment&#45;&gt;Car -->
<g id="edge12" class="edge">
<title>ServiceAppointment:e&#45;&gt;Car:w</title>
<path fill="none" stroke="#29235c" stroke-width="3" d="M576,-1800.96C706.85,-1800.96 736.34,-1857.95 862.04,-1860.85"/>
<polygon fill="#29235c" stroke="#29235c" stroke-width="3" points="862.02,-1864.35 872.06,-1860.96 862.1,-1857.35 862.02,-1864.35"/>
<text text-anchor="middle" x="865.84" y="-1832.16" font-family="Helvetica,sans-Serif" font-size="32.00" fill="#29235c">*</text>
<text text-anchor="middle" x="584.89" y="-1810.56" font-family="Helvetica,sans-Serif" font-size="32.00" fill="#29235c">1</text>
</g>
<!-- ShowroomVisit -->
<g id="ShowroomVisit" class="node">
<title>ShowroomVisit</title>
<ellipse fill="none" stroke="black" stroke-width="0" cx="338" cy="-214.96" rx="266.66" ry="214.92"/>
<polygon fill="#1d71b8" stroke="transparent" points="152,-304.96 152,-364.96 525,-364.96 525,-304.96 152,-304.96"/>
<polygon fill="none" stroke="#29235c" points="152,-304.96 152,-364.96 525,-364.96 525,-304.96 152,-304.96"/>
<text text-anchor="start" x="169.58" y="-326.16" font-family="Helvetica,sans-Serif" font-weight="bold" font-size="32.00" fill="#ffffff"> &#160;&#160;&#160;&#160;&#160;&#160;ShowroomVisit &#160;&#160;&#160;&#160;&#160;&#160;</text>
<polygon fill="#e7e2dd" stroke="transparent" points="152,-244.96 152,-304.96 525,-304.96 525,-244.96 152,-244.96"/>
<polygon fill="none" stroke="#29235c" points="152,-244.96 152,-304.96 525,-304.96 525,-244.96 152,-244.96"/>
<text text-anchor="start" x="163" y="-266.16" font-family="Helvetica,sans-Serif" font-weight="bold" font-size="32.00" fill="#29235c">id</text>
<text text-anchor="start" x="187.89" y="-266.16" font-family="Helvetica,sans-Serif" font-size="32.00" fill="#29235c"> &#160;&#160;&#160;</text>
<text text-anchor="start" x="371.78" y="-266.16" font-family="Helvetica,sans-Serif" font-style="italic" font-size="32.00" fill="#29235c">INTEGER</text>
<polygon fill="#e7e2dd" stroke="transparent" points="152,-184.96 152,-244.96 525,-244.96 525,-184.96 152,-184.96"/>
<polygon fill="none" stroke="#29235c" points="152,-184.96 152,-244.96 525,-244.96 525,-184.96 152,-184.96"/>
<text text-anchor="start" x="162.59" y="-205.16" font-family="Helvetica,sans-Serif" font-size="32.00" fill="#29235c">customer_id &#160;&#160;&#160;</text>
<text text-anchor="start" x="371.89" y="-206.16" font-family="Helvetica,sans-Serif" font-style="italic" font-size="32.00" fill="#29235c">INTEGER</text>
<polygon fill="#e7e2dd" stroke="transparent" points="152,-124.96 152,-184.96 525,-184.96 525,-124.96 152,-124.96"/>
<polygon fill="none" stroke="#29235c" points="152,-124.96 152,-184.96 525,-184.96 525,-124.96 152,-124.96"/>
<text text-anchor="start" x="163" y="-145.16" font-family="Helvetica,sans-Serif" font-size="32.00" fill="#29235c">visit_date &#160;&#160;&#160;</text>
<text text-anchor="start" x="352.23" y="-146.16" font-family="Helvetica,sans-Serif" font-style="italic" font-size="32.00" fill="#29235c">DATETIME</text>
<polygon fill="#e7e2dd" stroke="transparent" points="152,-64.96 152,-124.96 525,-124.96 525,-64.96 152,-64.96"/>
<polygon fill="none" stroke="#29235c" points="152,-64.96 152,-124.96 525,-124.96 525,-64.96 152,-64.96"/>
<text text-anchor="start" x="163" y="-85.16" font-family="Helvetica,sans-Serif" font-size="32.00" fill="#29235c">notes &#160;&#160;&#160;</text>
<text text-anchor="start" x="357.57" y="-86.16" font-family="Helvetica,sans-Serif" font-style="italic" font-size="32.00" fill="#29235c">VARCHAR</text>
<polygon fill="none" stroke="#29235c" stroke-width="2" points="150.5,-63.96 150.5,-365.96 525.5,-365.96 525.5,-63.96 150.5,-63.96"/>
</g>
<!-- ShowroomVisit&#45;&gt;Customer -->
<!-- ShowroomVisit&#45;&gt;Customer -->
<g id="edge14" class="edge">
<title>ShowroomVisit:e&#45;&gt;Customer:w</title>
<path fill="none" stroke="#29235c" stroke-width="3" d="M526,-214.96C706.07,-214.96 633.41,-499.79 803.86,-510.64"/>
<polygon fill="#29235c" stroke="#29235c" stroke-width="3" points="803.96,-514.15 814.06,-510.96 804.18,-507.15 803.96,-514.15"/>
<text text-anchor="middle" x="820.28" y="-520.56" font-family="Helvetica,sans-Serif" font-size="32.00" fill="#29235c">*</text>
<text text-anchor="middle" x="534.89" y="-186.16" font-family="Helvetica,sans-Serif" font-size="32.00" fill="#29235c">1</text>
</g>
<!-- Warranty -->
<g id="Warranty" class="node">
<title>Warranty</title>
<ellipse fill="none" stroke="black" stroke-width="0" cx="338" cy="-1280.96" rx="324.62" ry="214.92"/>
<polygon fill="#1d71b8" stroke="transparent" points="111,-1370.96 111,-1430.96 566,-1430.96 566,-1370.96 111,-1370.96"/>
<polygon fill="none" stroke="#29235c" points="111,-1370.96 111,-1430.96 566,-1430.96 566,-1370.96 111,-1370.96"/>
<text text-anchor="start" x="211.36" y="-1392.16" font-family="Helvetica,sans-Serif" font-weight="bold" font-size="32.00" fill="#ffffff"> &#160;&#160;&#160;&#160;&#160;&#160;Warranty &#160;&#160;&#160;&#160;&#160;&#160;</text>
<polygon fill="#e7e2dd" stroke="transparent" points="111,-1310.96 111,-1370.96 566,-1370.96 566,-1310.96 111,-1310.96"/>
<polygon fill="none" stroke="#29235c" points="111,-1310.96 111,-1370.96 566,-1370.96 566,-1310.96 111,-1310.96"/>
<text text-anchor="start" x="122" y="-1332.16" font-family="Helvetica,sans-Serif" font-weight="bold" font-size="32.00" fill="#29235c">id</text>
<text text-anchor="start" x="146.89" y="-1332.16" font-family="Helvetica,sans-Serif" font-size="32.00" fill="#29235c"> &#160;&#160;&#160;</text>
<text text-anchor="start" x="412.78" y="-1332.16" font-family="Helvetica,sans-Serif" font-style="italic" font-size="32.00" fill="#29235c">INTEGER</text>
<polygon fill="#e7e2dd" stroke="transparent" points="111,-1250.96 111,-1310.96 566,-1310.96 566,-1250.96 111,-1250.96"/>
<polygon fill="none" stroke="#29235c" points="111,-1250.96 111,-1310.96 566,-1310.96 566,-1250.96 111,-1250.96"/>
<text text-anchor="start" x="122" y="-1271.16" font-family="Helvetica,sans-Serif" font-size="32.00" fill="#29235c">car_id &#160;&#160;&#160;</text>
<text text-anchor="start" x="412.78" y="-1272.16" font-family="Helvetica,sans-Serif" font-style="italic" font-size="32.00" fill="#29235c">INTEGER</text>
<polygon fill="#e7e2dd" stroke="transparent" points="111,-1190.96 111,-1250.96 566,-1250.96 566,-1190.96 111,-1190.96"/>
<polygon fill="none" stroke="#29235c" points="111,-1190.96 111,-1250.96 566,-1250.96 566,-1190.96 111,-1190.96"/>
<text text-anchor="start" x="121.79" y="-1211.16" font-family="Helvetica,sans-Serif" font-size="32.00" fill="#29235c">coverage_details &#160;&#160;&#160;</text>
<text text-anchor="start" x="398.78" y="-1212.16" font-family="Helvetica,sans-Serif" font-style="italic" font-size="32.00" fill="#29235c">VARCHAR</text>
<polygon fill="#e7e2dd" stroke="transparent" points="111,-1130.96 111,-1190.96 566,-1190.96 566,-1130.96 111,-1130.96"/>
<polygon fill="none" stroke="#29235c" points="111,-1130.96 111,-1190.96 566,-1190.96 566,-1130.96 111,-1130.96"/>
<text text-anchor="start" x="122" y="-1151.16" font-family="Helvetica,sans-Serif" font-size="32.00" fill="#29235c">valid_until &#160;&#160;&#160;</text>
<text text-anchor="start" x="393.23" y="-1152.16" font-family="Helvetica,sans-Serif" font-style="italic" font-size="32.00" fill="#29235c">DATETIME</text>
<polygon fill="none" stroke="#29235c" stroke-width="2" points="109.5,-1129.96 109.5,-1431.96 566.5,-1431.96 566.5,-1129.96 109.5,-1129.96"/>
</g>
<!-- Warranty&#45;&gt;Car -->
<!-- Warranty&#45;&gt;Car -->
<g id="edge16" class="edge">
<title>Warranty:e&#45;&gt;Car:w</title>
<path fill="none" stroke="#29235c" stroke-width="3" d="M567,-1280.96C854.84,-1280.96 587.23,-1847.45 862.06,-1860.72"/>
<polygon fill="#29235c" stroke="#29235c" stroke-width="3" points="861.98,-1864.22 872.06,-1860.96 862.15,-1857.22 861.98,-1864.22"/>
<text text-anchor="middle" x="878.28" y="-1870.56" font-family="Helvetica,sans-Serif" font-size="32.00" fill="#29235c">*</text>
<text text-anchor="middle" x="575.89" y="-1290.56" font-family="Helvetica,sans-Serif" font-size="32.00" fill="#29235c">1</text>
</g>
</g>
</svg>
